<!DOCTYPE svg PUBLIC "-//W3C//DTD SVG 1.1//EN" "http://www.w3.org/Graphics/SVG/1.1/DTD/svg11.dtd">
<svg width="800px" height="800px" viewBox="0 0 24 24" fill="none" xmlns="http://www.w3.org/2000/svg">
    <g id="SVGRepo_bgCarrier" stroke-width="0"/>
    <g id="SVGRepo_tracerCarrier" stroke-linecap="round" stroke-linejoin="round"/>
    <g id="SVGRepo_iconCarrier">
        <path d="M22.5 12.2715C22.5 11.5415 22.4355 10.896 22.326 10.2605H12V13.749H17.8125C17.583 15.072 16.8105 16.1565 15.6865 16.8585V19.1035H18.9375C20.6595 17.5395 22.5 15.108 22.5 12.2715Z" fill="#4285F4"/>
        <path d="M12 23C14.73 23 17.064 22.065 18.9375 20.523L15.6865 18.278C14.7304 18.9148 13.5167 19.2735 12.1875 19.2735C9.5475 19.2735 7.326 17.4865 6.4785 15.102L3.1345 17.4325C5.00025 20.8575 8.2935 23 12 23Z" fill="#34A853"/>
        <path d="M6.4785 15.102C6.21975 14.466 6.069 13.779 6.069 13.0675C6.069 12.356 6.21975 11.669 6.4785 11.033L3.1345 8.7025C2.487 10.005 2.25 11.4955 2.25 13.0675C2.25 14.6395 2.487 16.13 3.1345 17.4325L6.4785 15.102Z" fill="#FBBC05"/>
        <path d="M12.1875 6.8605C13.6455 6.8605 14.8915 7.365 15.828 8.253L18.9945 5.109C17.0635 3.3645 14.73 2.25 12 2.25C8.2935 2.25 5.00025 4.392 3.1345 7.817L6.4785 10.1475C7.326 7.7635 9.5475 5.9765 12.1875 5.9765V6.8605Z" fill="#EA4335"/>
    </g>
</svg>
